<?xml version="1.0" encoding="UTF-8"?>
<svg id="Layer_2" data-name="Layer 2" xmlns="http://www.w3.org/2000/svg" viewBox="0 0 218 600">
  <defs>
    <style>
      .cls-1 {
        fill: #fff;
        stroke-width: .75px;
      }

      .cls-1, .cls-2, .cls-3, .cls-4, .cls-5, .cls-6, .cls-7, .cls-8, .cls-9 {
        stroke-miterlimit: 10;
      }

      .cls-1, .cls-5 {
        stroke: #0071bc;
      }

      .cls-2, .cls-4, .cls-6, .cls-7, .cls-8, .cls-9 {
        stroke: #000;
      }

      .cls-2, .cls-10, .cls-7 {
        fill: #000;
      }

      .cls-3 {
        fill: #b3b3b3;
        stroke: #999;
        stroke-width: 2px;
      }

      .cls-4 {
        fill: #5d0059;
      }

      .cls-4, .cls-6, .cls-7, .cls-9 {
        stroke-width: 4px;
      }

      .cls-5, .cls-6, .cls-8 {
        fill: none;
      }

      .cls-10 {
        stroke-width: 0px;
      }

      .cls-8 {
        stroke-width: 7px;
      }

      .cls-9 {
        fill: #1a1a1a;
      }
    </style>
  </defs>
  <g id="Layer_1-2" data-name="Layer 1">
    <g>
      <path class="cls-10" d="M59.42,273.56c.06-.04.13-.07.19-.11h-.12l-.07.11Z"/>
      <path class="cls-8" d="M182.91,81.84c-10.7-14.08-43.37-27.82-78.62-27.28-31.65.49-64.69,16.79-69.61,26.86-5.17,16.79-18.84,44.58-18.74,78.95.03,10.86,1.01,21.4,2.82,31.47,4.31,11.38,10.01,24.1,17.61,37.46,12.61,22.17,26.62,39.4,38.76,52.18,0,0,.01,0,.02.01.01,0,.02.01.02.01,14.67,7.32,33.67,7.2,33.67,7.2,14.95-.09,26.89-4.22,34.1-7.39,11.49-12.27,24.7-28.64,36.8-49.49,8.46-14.57,14.66-28.38,19.25-40.53,1.12-5.43,1.97-12.28,2.38-20.22.18-3.53.27-7.28.26-11.22-.03-11.36-1.5-22.56-3.81-33.22-3.65-16.82-9.39-32.28-14.92-44.8Z"/>
      <path class="cls-6" d="M192.94,113.62c5.09-3.26,12.69-5.58,17.3-.32,3.28,3.75,4.46,8.79,5.16,20.37.76,12.62,1.14,18.96-1.65,27.34-1.47,4.41-4.83,12.43-12.76,20.34"/>
      <path class="cls-2" d="M198.55,144.2c-18.28-17.4-22.21-30.82-22.21-30.82l-2.44-17.46"/>
      <path class="cls-2" d="M18.27,146.24c18.45-17.5,22.36-30.94,22.36-30.94l2.38-17.47"/>
      <path class="cls-7" d="M200.57,137.12l-2.31-16.08c.14-.11.3-.17.45-.18,2.01-.23,4.51,6.92,5.53,15.85,1.02,8.92.2,16.46-1.81,16.69-.16.02-.33-.01-.5-.09l-1.36-16.18Z"/>
      <g>
        <path class="cls-9" d="M193.69,111.2l-167.23.46c-4.22.01-7.65-3.28-7.66-7.34l-.09-33.37c0-1.18.28-2.34.85-3.39,3.56-6.63,7.4-31.29,29.57-48.05C64.37,7.98,93.48,1.46,116.24,2.03c16.61.42,42.08,7.49,53.76,15.45,24.39,16.6,26.81,41.55,30.4,49.62.47,1.06.82,2.15.82,3.3l.09,33.41c.01,4.07-3.4,7.38-7.62,7.39Z"/>
        <line class="cls-9" x1="18.69" y1="67.59" x2="201.21" y2="67.08"/>
      </g>
      <rect class="cls-3" x="97.77" y="74.1" width="28.02" height="28.02" transform="translate(-.24 .31) rotate(-.16)"/>
      <path class="cls-4" d="M16.47,136.84l2.22-16.1c-.15-.1-.3-.17-.45-.18-2.02-.22-4.47,6.95-5.45,15.88-.97,8.93-.11,16.46,1.9,16.68.16.02.33-.01.5-.09l1.27-16.19Z"/>
      <path class="cls-6" d="M25,114.08c-5.09-3.26-12.69-5.58-17.3-.32-3.28,3.75-4.46,8.79-5.16,20.37-.76,12.62-1.14,18.96,1.65,27.34,1.47,4.41,4.83,12.43,12.76,20.34"/>
      <g>
        <rect class="cls-5" x="16.53" y="53.1" width="187.26" height="235.62"/>
        <path class="cls-5" d="M184.25,81.24c-10.7-14.08-43.37-27.82-78.62-27.28-31.65.49-64.69,16.79-69.61,26.86-5.17,16.79-18.84,44.58-18.74,78.95.03,10.86,1.01,21.4,2.82,31.47,4.31,11.38,10.01,24.1,17.61,37.46,12.61,22.17,26.62,39.4,38.76,52.18,0,0,.01,0,.02.01.01,0,.02.01.02.01,14.67,7.32,33.67,7.2,33.67,7.2,14.95-.09,26.89-4.22,34.1-7.39,11.49-12.27,24.7-28.64,36.8-49.49,8.46-14.57,14.66-28.38,19.25-40.53,1.12-5.43,1.97-12.28,2.38-20.22.18-3.53.27-7.28.26-11.22-.03-11.36-1.5-22.56-3.81-33.22-3.65-16.82-9.39-32.28-14.92-44.8Z"/>
        <rect class="cls-1" x="14.81" y="163.05" width="4" height="4"/>
        <rect class="cls-1" x="201.24" y="162.2" width="4" height="4"/>
        <rect class="cls-1" x="107.52" y="286.4" width="4" height="4"/>
        <rect class="cls-1" x="108.13" y="51.48" width="4" height="4"/>
      </g>
    </g>
  </g>
</svg>