<?xml version="1.0" encoding="UTF-8"?>
<svg id="Layer_2" data-name="Layer 2" xmlns="http://www.w3.org/2000/svg" viewBox="0 0 218.63 145.75">
  <defs>
    <style>
      .cls-1 {
        fill: #000;
        stroke: #000;
      }

      .cls-1, .cls-2 {
        stroke-miterlimit: 10;
      }

      .cls-2 {
        fill: none;
        stroke: blue;
      }
    </style>
  </defs>
  <g id="Layer_1-2" data-name="Layer 1">
    <g>
      <g>
        <path class="cls-er" d="M134.91,81.61c8.6,1.91,19.08,2.06,30.78,1.19,12.56-.93,23.66-3.47,32.89-6.37.23-.29,1.16-1.55,1.35-3.57.17-1.87-.41-3.19-.58-3.54-9.1-3.14-20.09-5.92-32.71-7.15-11.23-1.09-21.41-.71-30.17.3-4.12,1.45-3.83,4.22-5.91,8.38,1.19,3.23,1.05,7.26,4.34,10.75Z"/>
        <path class="cls-1" d="M92.58,95.74c-.08,3.64-.16,6.7-.36,6.7s-.29-3.22-.38-6.7c-.09-3.68.18-6.41.36-6.7s.46,3.02.38,6.7Z"/>
        <path class="cls-1" d="M124.69,95.65c-.04,3.64-.08,6.7-.2,6.7s-.16-3.22-.21-6.7c-.05-3.68.09-6.41.2-6.7s.25,3.02.21,6.7Z"/>
        <path class="cls-el" d="M81.7,81.76c-8.59,1.96-19.07,2.16-30.78,1.36-12.56-.86-23.68-3.34-32.92-6.19-.23-.29-1.17-1.54-1.37-3.56-.18-1.87.39-3.19.56-3.54,9.08-3.19,20.06-6.03,32.67-7.33,11.22-1.15,21.4-.83,30.17.13,4.13,1.43,3.85,4.2,5.96,8.35-1.17,3.23-1.01,7.27-4.28,10.78Z"/>
      </g>
      <g>
        <line class="cls-2" x1="108.86" x2="108.86" y2="145.75"/>
        <line class="cls-2" x1="0" y1="70.63" x2="218.63" y2="71.53"/>
      </g>
    </g>
  </g>
</svg>