<?xml version="1.0" encoding="UTF-8"?>
<svg id="Layer_2" data-name="Layer 2" xmlns="http://www.w3.org/2000/svg" xmlns:xlink="http://www.w3.org/1999/xlink" viewBox="0 0 498.14 485.82">
  <defs>
    <style>
      .cls-1, .cls-2, .cls-3, .cls-4, .cls-5, .cls-6, .cls-7, .cls-8, .cls-9 {
        stroke-miterlimit: 10;
      }

      .cls-1, .cls-3, .cls-4, .cls-5, .cls-6, .cls-7, .cls-8, .cls-9 {
        stroke: #000;
      }

      .cls-1, .cls-10, .cls-4, .cls-5 {
        fill: #000;
      }

      .cls-2 {
        fill: #b3b3b3;
        stroke: #999;
        stroke-width: 2px;
      }

      .cls-3, .cls-5, .cls-8 {
        stroke-width: 4px;
      }

      .cls-3, .cls-6, .cls-7 {
        fill: none;
      }

      .cls-10 {
        stroke-width: 0px;
      }

      .cls-4 {
        stroke-width: 1.25px;
      }

      .cls-6 {
        stroke-width: 7px;
      }

      .cls-8 {
        fill: #1a1a1a;
      }

      .cls-9 {
        fill: url(#linear-gradient);
        stroke-width: 16px;
      }
    </style>
    <linearGradient id="linear-gradient" x1="417.37" y1="411.21" x2="80.77" y2="74.61" gradientUnits="userSpaceOnUse">
      <stop offset=".03" stop-color="#dff"/>
      <stop offset=".57" stop-color="#ffffd8"/>
      <stop offset=".67" stop-color="#f2ffdf"/>
      <stop offset=".86" stop-color="#cffff1"/>
      <stop offset=".92" stop-color="#c3fff9"/>
    </linearGradient>
  </defs>
  <g id="Layer_1-2" data-name="Layer 1">
    <g>
      <ellipse class="cls-9" cx="249.07" cy="242.91" rx="241.07" ry="234.91"/>
      <path class="cls-10" d="M201.66,381.72c.06-.04.13-.07.19-.11h-.12l-.07.11Z"/>
      <path class="cls-3" d="M166.58,220.67c-5.47-3.53-13.61-6.01-18.51-.24s-4.75,15.3-5.4,22.26"/>
      <path class="cls-6" d="M325.16,190.01c-10.7-14.08-43.37-27.82-78.62-27.28-31.65.49-64.69,16.79-69.61,26.86-5.17,16.79-18.84,44.58-18.74,78.95.03,10.86,1.01,21.4,2.82,31.47,4.31,11.38,10.01,24.1,17.61,37.46,12.61,22.17,26.62,39.4,38.76,52.18,0,0,.01,0,.02.01.01,0,.02.01.02.01,14.67,7.32,33.67,7.2,33.67,7.2,14.95-.09,26.89-4.22,34.1-7.39,11.49-12.27,24.7-28.64,36.8-49.49,8.46-14.57,14.66-28.38,19.25-40.53,1.12-5.43,1.97-12.28,2.38-20.22.18-3.53.27-7.28.26-11.22-.03-11.36-1.5-22.56-3.81-33.22-3.65-16.82-9.39-32.28-14.92-44.8Z"/>
      <path class="cls-3" d="M355.99,269.17c-2.77,7.59-7.1,14.57-12.76,20.34"/>
      <path class="cls-3" d="M335.19,221.78c5.09-3.26,12.69-5.58,17.3-.32s4.52,14,5.16,20.37"/>
      <path class="cls-1" d="M273,255.76c6.67,1.48,14.79,1.6,23.85.92,9.73-.72,18.34-2.69,25.49-4.94.17-.22.9-1.2,1.05-2.76.14-1.45-.32-2.47-.45-2.74-7.05-2.43-15.57-4.59-25.34-5.54-8.7-.84-16.59-.55-23.38.23-3.19,1.12-2.97,3.27-4.58,6.49.92,2.5.81,5.63,3.36,8.33Z"/>
      <path class="cls-1" d="M274.06,307.01c-6.66,1.37-14.35,2.35-22.9,2.37-8.56.02-16.27-.91-22.94-2.24v-2.64s45.83-.13,45.83-.13v2.64Z"/>
      <path class="cls-10" d="M253.28,334.42c-19.85.05-37.18,2.03-46.53,4.92l91.79-.63c-9.62-2.63-26.29-4.35-45.26-4.3Z"/>
      <path class="cls-10" d="M252.34,359.63c11.37-.03,21.3-2.96,26.65-7.3l-52.59.71c5.52,3.99,15.08,6.62,25.95,6.59Z"/>
      <path class="cls-1" d="M340.79,252.37c-18.28-17.4-22.21-30.82-22.21-30.82l-2.44-17.46"/>
      <path class="cls-1" d="M160.52,254.4c18.45-17.5,22.36-30.94,22.36-30.94l2.38-17.47"/>
      <path class="cls-5" d="M342.81,245.29l-2.31-16.08c.14-.11.3-.17.45-.18,2.01-.23,4.51,6.92,5.53,15.85,1.02,8.92.2,16.46-1.81,16.69-.16.02-.33-.01-.5-.09l-1.36-16.18Z"/>
      <path class="cls-1" d="M240.2,266.71c-.06,2.82-.12,5.19-.28,5.19s-.22-2.49-.29-5.19c-.07-2.85.14-4.97.28-5.19s.35,2.34.29,5.19Z"/>
      <path class="cls-1" d="M265.08,266.64c-.03,2.82-.07,5.2-.15,5.2s-.12-2.49-.16-5.19c-.04-2.85.07-4.97.15-5.2s.19,2.34.16,5.19Z"/>
      <g>
        <path class="cls-8" d="M335.94,219.36l-167.23.46c-4.22.01-7.65-3.28-7.66-7.34l-.09-33.37c0-1.18.28-2.34.85-3.39,3.56-6.63,7.4-31.29,29.57-48.05,15.25-11.53,44.36-18.05,67.13-17.47,16.61.42,42.08,7.49,53.76,15.45,24.39,16.6,26.81,41.55,30.4,49.62.47,1.06.82,2.15.82,3.3l.09,33.41c.01,4.07-3.4,7.38-7.62,7.39Z"/>
        <line class="cls-8" x1="160.94" y1="175.75" x2="343.46" y2="175.25"/>
      </g>
      <path class="cls-1" d="M231.77,255.87c-6.66,1.52-14.78,1.68-23.85,1.06-9.74-.67-18.35-2.59-25.51-4.8-.18-.22-.91-1.19-1.06-2.76-.14-1.45.3-2.47.43-2.74,7.04-2.47,15.54-4.68,25.31-5.68,8.69-.89,16.58-.64,23.38.1,3.2,1.11,2.99,3.25,4.62,6.47-.91,2.51-.78,5.63-3.32,8.35Z"/>
      <rect class="cls-2" x="240.02" y="182.27" width="28.02" height="28.02" transform="translate(-.54 .7) rotate(-.16)"/>
      <path class="cls-7" d="M218.59,389.41c-6.43-7.88-13.55-17.85-20.2-30.01-5.81-10.62-10-20.6-13.05-29.28"/>
      <path class="cls-3" d="M145.62,264.33c2.81,7.57,7.18,14.53,12.87,20.27"/>
      <path class="cls-5" d="M158.72,245l2.22-16.1c-.15-.1-.3-.17-.45-.18-2.02-.22-4.47,6.95-5.45,15.88-.97,8.93-.11,16.46,1.9,16.68.16.02.33-.01.5-.09l1.27-16.19Z"/>
      <path class="cls-4" d="M29.32,298.99l1.14-.51c4.89-2.21,10.35-2.77,15.53-1.56,9.86,2.3,25.69,5.36,37.66,4.62,5.85-.36,11.35-3.1,15.08-7.51.98-1.16,2.04-2.49,3.13-3.97l58.56-27.37-1.65-5.89-51.67,25.17c2.75-4.85,5.42-10.67,7.49-17.47.57-1.87.42-3.86-.39-5.59l10.9-4.93,34.66-15.68-3.81-3.99-23.28,10.53c.6-2.65.36-5.49-.88-8.13-2.04-4.32-6.27-7-10.86-7.39,1.13-2.88,1.13-6.17-.28-9.16-2.75-5.82-9.83-8.39-15.93-5.85.22-1.86-.06-3.79-.91-5.59-2.51-5.32-9.07-7.61-14.61-5.11l-16.2,7.33c-2.18-.25-8.04-.58-16.43,1.45-4.39,1.06-8.85,2.62-13.32,4.64-1.73.78-3.46,1.63-5.18,2.55-7.68,4.09-15.34,9.57-22.77,16.26-1.78,1.6-3.77,2.91-5.92,3.88l-1.38,3.18c-1.36.61-4.1,1.36-3.48,2.66l13.9,55.35c.61,1.3,8.31-1.78,10.91-1.93ZM126.88,238.92c1.83,3.87.03,8.51-4,10.33l-11.78,5.33c-2.51-3.26-5.98-7.94-9.23-12.87l.1-.04,12.55-5.68,1.73-.78c4.03-1.82,8.8-.16,10.63,3.71ZM115.75,222.37c1.57,3.34.03,7.33-3.45,8.91l-12.55,5.68-.69.31c-.83-1.37-1.61-2.73-2.33-4.07-1.57-2.93-4.56-4.83-7.98-5.1-.67-.05-1.34-.04-2,.04l11.56-5.23,8.28-3.75c3.48-1.57,7.58-.14,9.16,3.2ZM71.5,217.33l19.92-9.01c2.84-1.28,6.2-.11,7.48,2.61,1.29,2.73.02,5.99-2.82,7.27l-15.88,7.19-4.04,1.83c-2.84,1.28-6.2.11-7.48-2.61-1.29-2.73-.02-5.99,2.82-7.27ZM7.45,246.31l4.15-1.88c2.67-1.21,5.14-2.83,7.34-4.81,15.85-14.3,29.67-19.91,38.48-22.09,2.81-.7,5.31-1.1,7.43-1.33-2.21,3.03-2.75,7.06-1.07,10.62,1.79,3.8,5.64,6.05,9.71,6.12-.81,2.66-.69,5.59.58,8.28.55,1.16,1.27,2.2,2.16,3.12,0,.05,0,.1,0,.15.14,2.42.67,4.99,1.58,7.71-.68-.51-1.39-1.02-2.14-1.51-4.81-3.21-9.82-5.23-14.91-6.02-6.33-.98-12.72-.03-19,2.81-.09.04-.18.08-.27.12-1.35.62-1.94,2.18-1.32,3.48.62,1.29,2.21,1.84,3.56,1.23,0,0,.01,0,.02,0,.08-.04.15-.07.23-.11,9.6-4.34,19.17-3.43,28.45,2.71,4.9,3.24,8.48,7.18,10.29,9.4-3.38,2.52-9.09,7.54-12.33,14.6-.6,1.3-.2,2.93,1.08,3.57,1.41.7,3.12.08,3.75-1.31,3.18-7.1,9.45-11.91,12-13.64.75-.51,1.3-1.21,1.61-1.98.01-.03.02-.05.03-.08.46-1.2.37-2.58-.37-3.73-4.28-6.74-6.6-12.67-6.89-17.62-.02-.29-.03-.58-.03-.87,0-.07,0-.13,0-.2,0-3.14.9-5.84,2.65-8.03.97-1.21,2.43-1.84,4.01-1.72,1.59.12,2.97,1,3.7,2.35,1.1,2.05,2.35,4.17,3.68,6.27.03.05.06.11.1.16,4.34,6.88,9.42,13.59,12.33,17.31,0,0,.01.02.02.03.46.58.86,1.09,1.2,1.51.37.46.49,1.08.32,1.64-3.07,10.31-7.58,18.24-11.62,23.84-.06.07-.11.14-.16.22-1.13,1.56-2.22,2.93-3.23,4.13-2.77,3.27-6.85,5.31-11.19,5.58-13.89.87-33.73-3.81-41.62-5.85-2.57-.67-5.33-.43-7.77.67l-4.1,1.85c-.19.09-5.99,3.71-6.08,3.53l-16.36-50.22Z"/>
      <path class="cls-4" d="M484.82,298.19l10.67-54.11c.63-1.3-1.38-3.86-2.73-4.47l-2.42-1.74c-2.14-.96-4.12-2.26-5.88-3.85-7.36-6.65-14.97-12.08-22.61-16.13-1.72-.91-3.44-1.75-5.16-2.53-4.45-2-8.9-3.53-13.27-4.57-8.37-1.99-14.23-1.63-16.41-1.38l-16.13-7.25c-5.52-2.48-12.09-.17-14.66,5.15-.87,1.81-1.17,3.73-.96,5.59-6.08-2.51-13.18.08-15.98,5.9-1.44,2.99-1.47,6.26-.36,9.14-4.59.41-8.84,3.1-10.92,7.42-1.27,2.63-1.53,5.47-.95,8.11l-23.18-10.42-3.85,4,34.5,15.51,10.85,4.88c-.82,1.73-.99,3.72-.44,5.58,2.01,6.77,4.62,12.57,7.32,17.39l-50.36-24.06-.57,5.96,56.09,26.15c1.08,1.48,2.12,2.8,3.1,3.95,3.69,4.38,9.16,7.1,15,7.43,11.95.7,27.81-2.42,37.69-4.76,5.2-1.23,10.65-.7,15.52,1.49l1.13.51c2.6.15,14.35,2.42,14.97,1.12ZM383.54,233.79l1.72.78,12.5,5.62.1.04c-3.29,4.93-6.81,9.61-9.35,12.88l-11.73-5.27c-4.01-1.8-5.77-6.42-3.9-10.29,1.86-3.87,6.64-5.55,10.66-3.75ZM393.35,217.76l8.24,3.7,11.51,5.17c-.65-.07-1.32-.09-2-.03-3.43.27-6.43,2.19-8.03,5.12-.73,1.33-1.52,2.69-2.36,4.07l-.68-.31-12.5-5.62c-3.46-1.56-4.97-5.53-3.36-8.87,1.6-3.34,5.73-4.78,9.19-3.23ZM431.19,223.02c-1.31,2.72-4.68,3.91-7.5,2.64l-4.02-1.81-15.81-7.1c-2.83-1.27-4.06-4.52-2.75-7.24,1.31-2.72,4.68-3.91,7.5-2.64l19.83,8.91c2.83,1.27,4.06,4.52,2.75,7.24ZM477.91,295.89c-.09.19-8.39-4.7-8.58-4.78l-4.08-1.83c-2.43-1.09-5.19-1.32-7.76-.64-7.9,2.08-27.78,6.82-41.66,6.01-4.34-.25-8.4-2.26-11.14-5.52-1-1.18-2.07-2.55-3.19-4.1-.05-.07-.1-.15-.15-.21-3.98-5.57-8.42-13.47-11.39-23.74-.16-.56-.04-1.17.33-1.62.34-.43.75-.94,1.22-1.53,0,0,.01-.02.02-.03,2.94-3.72,8.08-10.43,12.49-17.32.04-.05.07-.1.1-.16,1.34-2.1,2.62-4.22,3.73-6.27.74-1.35,2.13-2.24,3.72-2.36,1.58-.13,3.04.49,3.99,1.7,1.73,2.18,2.6,4.87,2.57,8,0,.07,0,.13,0,.2,0,.29-.02.57-.04.87-.33,4.94-2.71,10.86-7.05,17.61-.74,1.15-.85,2.53-.4,3.72,0,.03.02.05.03.08.31.77.84,1.46,1.59,1.97,2.53,1.72,8.75,6.48,11.87,13.56.39.89,1.24,1.46,2.17,1.57,2.04.23,3.47-2.11,2.63-3.95-3.18-6.97-8.8-11.92-12.14-14.41,1.84-2.23,5.45-6.17,10.38-9.42,9.34-6.16,18.91-7.11,28.47-2.81.08.03.15.07.23.1,0,0,.01,0,.02,0,1.34.6,2.93.05,3.57-1.24.64-1.3.06-2.85-1.28-3.46-.09-.04-.18-.08-.26-.12-6.26-2.81-12.64-3.73-18.97-2.73-5.09.8-10.13,2.84-14.96,6.06-.75.5-1.46,1-2.15,1.52.93-2.72,1.49-5.29,1.65-7.7,0-.05,0-.1,0-.15.89-.92,1.63-1.96,2.18-3.12,1.29-2.69,1.45-5.61.66-8.26,4.07-.09,7.94-2.35,9.77-6.15,1.71-3.56,1.2-7.58-.97-10.59,2.12.21,4.61.61,7.41,1.29,8.78,2.15,22.55,7.69,38.26,21.89,2.18,1.97,4.63,3.57,7.29,4.77l4.13,1.85-14.29,51.46Z"/>
      <path class="cls-7" d="M284.7,388.09c6.43-7.88,13.55-17.85,20.2-30.01,5.81-10.62,10-20.6,13.05-29.28"/>
    </g>
  </g>
</svg>